# xmcd
#
# Track frame offsets:
#	150
#	17308
#	31847
#	48910
#	65858
#	79793
#	95986
#	113309
#	129174
#	143516
#	156825
#	169872
#	186538
#	201086
#	215554
#	228621
#	242106
#	254983
#	266368
#	283925
#	300472
#
# Disc length: 4196 seconds
#
# Revision: 0
# Processed by: cddbd v1.5.2PL0 Copyright (c) Steve Scherf et al.
# Submitted via: EasyCDDAExtractor 16.0.9.1
#
DISCID=2e106215
DTITLE=Nu Country Traxx Volume 198 US
DYEAR=2015
DGENRE=country
TTITLE0=Thomas Rhett\n - Die A Happy Man\n
TTITLE1=Zac Brown Band\n - Beautiful Drug\n
TTITLE2=Brad Paisley\n - Country Nation\n
TTITLE3=Craig Morgan\n - When I'm Gone\n
TTITLE4=Dustin Lynch\n - Mind Reader\n
TTITLE5=Alabama\n - Wasn't Through Lovin' You Yet\n
TTITLE6=Sam Hunt\n - Break Up In A Small Town\n
TTITLE7=Rascal Flatts\n - I Like The Sound Of That\n
TTITLE8=Michael Ray\n - Real Men Love Jesus\n
TTITLE9=Joe Nichols\n - Freaks Like Me\n
TTITLE10=Emma Lane\n - Little Bit Of Somethin'\n
TTITLE11=Granger Smith\n - Backroad Song\n
TTITLE12=Dixie Kin Band\n - Sweet Lady Blue\n
TTITLE13=Lauren Alaina\n - Next Boyfriend\n
TTITLE14=The Nickel Slots\n - On The Wall\n
TTITLE15=Southern Halo\n - Little White Dress\n
TTITLE16=Soul Circus Cowboys\n - Gotta Get Me One Of Them\n
TTITLE17=Denny Strickland\n - How Far You Wanna Go\n
TTITLE18=Alexandra Demetree\n - Outta My Head\n
TTITLE19=Leslie Cours Mather\n - Hell Hath No Fury\n
TTITLE20=Callie Twisselman\n - Hung Me On The Line\n
EXTD=
EXTT0=
EXTT1=
EXTT2=
EXTT3=
EXTT4=
EXTT5=
EXTT6=
EXTT7=
EXTT8=
EXTT9=
EXTT10=
EXTT11=
EXTT12=
EXTT13=
EXTT14=
EXTT15=
EXTT16=
EXTT17=
EXTT18=
EXTT19=
EXTT20=
PLAYORDER=
